# xmcd CD database file
#
# Track frame offsets:
#	150
#	16129
#	31305
#	46760
#	64951
#	90900
#	108646
#	122484
#	134867
#	153550
#	172903
#	195216
#	218141
#	240848
#	264179
#	280531
#	294403
#	310064
#
# Disc length: 4530 seconds
#
# Revision: 0
# Processed by: cddbd v1.5.1PL2 Copyright (c) Steve Scherf et al.
# Submitted via: CDex 1.51
#
DISCID=e611b012
DTITLE=Medeski, Martin and Wood - Note Bleu
DYEAR=2006
DGENRE=Jazz
TTITLE0=The Dropper
TTITLE1=Sugar Craft
TTITLE2=I Wanna Ride You
TTITLE3=Nocturne
TTITLE4=Partido Alto
TTITLE5=Hay-Hee-Hi-Ho (illyB Remix)
TTITLE6=Note Bleu
TTITLE7=Pappy Check
TTITLE8=Mami Gato
TTITLE9=Off the Table
TTITLE10=Hypnotized
TTITLE11=Queen Bee
TTITLE12=Hey Joe
TTITLE13=End of the World Party
TTITLE14=Uninvisible
TTITLE15=Whiny Bitches
TTITLE16=The Builder
TTITLE17=Toy Dancing
EXTD=YEAR: 2006
EXTT0=
EXTT1=
EXTT2=
EXTT3=
EXTT4=
EXTT5=
EXTT6=
EXTT7=
EXTT8=
EXTT9=
EXTT10=
EXTT11=
EXTT12=
EXTT13=
EXTT14=
EXTT15=
EXTT16=
EXTT17=
PLAYORDER=
